<svg width="782" height="321" viewBox="0 0 782 321" fill="none" xmlns="http://www.w3.org/2000/svg">
<path d="M0.820312 277.878L3.53853 281.458L6.25675 254.163L8.97497 245.343L11.6932 255.451L14.4114 267.068L17.1296 256.393L19.8478 239.06L22.5661 256.351L25.2843 286.017L28.0025 267.614L30.7207 254.856L33.4389 242.87L36.1572 242.459L38.8754 248.389L41.5936 219.371L44.3118 204.5L47.03 204.272L49.7483 210.819L52.4665 229.158L55.1847 223.324L57.9029 241.262L60.6211 233.525L63.3393 234.767L66.0576 242.706L68.7758 249.308L71.494 237.168L74.2122 221.08L76.9304 227.609L79.6487 228.58L82.3669 230.567L85.0851 242.706L87.8033 260.273L90.5215 262.653L93.2398 247.66L95.958 250.135L98.6762 234.781L101.394 217.788L104.113 205.128L106.831 196.334L109.549 199.734L112.267 203.741L114.986 203.625L117.704 188.362L120.422 199.57L123.14 207.223L125.858 198.487L128.577 193.476L131.295 187.477L134.013 197.116L136.731 208.318L139.449 222.115L142.168 215.4L144.886 217.107L147.604 222.408L150.322 221.097L153.041 235.371L155.759 225.156L158.477 225.096L161.195 230.401L163.913 238.032L166.632 242.316L169.35 231.794L172.068 236.142L174.786 249.969L177.505 259.894L180.223 243.61L182.941 230.063L185.659 212.726L188.377 200.004L191.096 202.239L193.814 211.844L196.532 215.147L199.25 204.208L201.969 202.681L204.687 210.784L207.405 209.526L210.123 201.103L212.841 197.534L215.56 195.737L218.278 194.005L220.996 177.267L223.714 213.388L226.432 231.429L229.151 219.458L231.869 198.446L234.587 203.961L237.305 203.426L240.024 214.319L242.742 218.091L245.46 229.061L248.178 222.536L250.896 207.637L253.615 212.985L256.333 224.931L259.051 242.762L261.769 220.158L264.488 216.749L267.206 225.027L269.924 231.862L272.642 243.049L275.36 241.03L278.079 237.189L280.797 244.373L283.515 240.569L286.233 247.651L288.952 243.709L291.67 227.419L294.388 200.387L297.106 239.156L299.824 294.417L307.979 84.1311L313.415 66.5748L316.134 46.7665L318.852 21.9198L321.57 20.463L324.288 2.32079L327.007 1.24121L329.725 39.7387L332.443 72.9932L335.161 61.9375L337.879 84.7144L340.598 88.0643L343.316 121.704L346.034 131.94L348.752 188.451L351.471 189.037L354.189 218.522L356.907 215.291L359.625 227.27L362.343 208.734L365.062 196.468L367.78 183.249L370.498 177.685L373.216 183.452L375.935 190.602L378.653 210.853L381.371 232.099L384.089 204.177L386.807 206.889L389.526 222L392.244 226.692L394.962 214.882L397.68 224.683L400.398 221.78L403.117 212.53L405.835 206.466L408.553 222.601L411.271 222.57L413.99 227.124L416.708 240.986L419.426 219.583L422.144 200.894L424.862 179.192L427.581 188.525L430.299 186.464L433.017 185.273L435.735 188.82L438.454 171.255L441.172 159.802L443.89 153.154L446.608 157.843L449.326 150.211L452.045 143.196L454.763 124.329L457.481 130.469L460.199 124.4L462.918 133.24L465.636 135.517L468.354 122.943L471.072 131.206L473.79 131.047L476.509 129.543L479.227 111.782L481.945 105.691L484.663 90.4628L487.382 109.335L490.1 112.602L492.818 124.422L495.536 118.68L498.254 155.488L500.973 159.18L503.691 154.906L506.409 162.23L509.127 181.338L511.845 161.127L514.564 168.073L517.282 167.137L520 163.727L522.718 150.71L525.437 142.548L528.155 133.787L530.873 137.102L533.591 138.197L536.309 149.054L539.028 150.818L541.746 112.577L544.464 123.441L547.182 149.67L549.901 137.252L552.619 126.037L555.337 107.101L558.055 140.392L560.773 113.006L563.492 124.27L566.21 129.788L568.928 115.27L571.646 101.564L574.365 118.758L577.083 109.382L579.801 120.095L582.519 99.7317L585.237 99.437L587.956 115.876L590.674 120.33L593.392 120.856L596.11 109.98L598.828 111.727L601.547 112.744L604.265 93.4896L606.983 144.235L609.701 148.008L612.42 146.517L615.138 109.94L617.856 118.416L620.574 137.586L623.292 154.796L626.011 167.452L628.729 191.114L631.447 180.344L634.165 175.65L636.884 164.734L639.602 162.035L642.32 157.156L645.038 179.221L647.756 176.939L650.475 178.817L653.193 171.801L655.911 173.838L658.629 175.024L661.347 163.273L664.066 152.082L666.784 157.299L669.502 154.826L672.22 125.091L674.939 154.786L677.657 176.083L680.375 155.193L683.093 171.807L685.811 164.77L688.53 163.273L691.248 178.889L693.966 179.677L696.684 161.509L699.403 179.297L702.121 204.896L704.839 206.243L707.557 204.321L710.275 199.63L712.994 211.675L715.712 208.207L718.43 192.522L721.148 194.205L723.867 186.809L726.585 190.88L729.303 188.26L732.021 199.93L734.739 206.726L737.458 216.942L740.176 206.223L742.894 230.37L745.612 207.761L748.331 200.436L751.049 222.669L753.767 229.341L756.485 218.642L759.203 220.173L761.922 241.041L764.64 232.735L767.358 228.209L770.076 223.49L772.794 229.381L775.513 218.21L778.231 211.127L780.949 202.979V320.11H778.231H775.513H772.794H770.076H767.358H764.64H761.922H759.203H756.485H753.767H751.049H748.331H745.612H742.894H740.176H737.458H734.739H732.021H729.303H726.585H723.867H721.148H718.43H715.712H712.994H710.275H707.557H704.839H702.121H699.403H696.684H693.966H691.248H688.53H685.811H683.093H680.375H677.657H674.939H672.22H669.502H666.784H664.066H661.347H658.629H655.911H653.193H650.475H647.756H645.038H642.32H639.602H636.884H634.165H631.447H628.729H626.011H623.292H620.574H617.856H615.138H612.42H609.701H606.983H604.265H601.547H598.828H596.11H593.392H590.674H587.956H585.237H582.519H579.801H577.083H574.365H571.646H568.928H566.21H563.492H560.773H558.055H555.337H552.619H549.901H547.182H544.464H541.746H539.028H536.309H533.591H530.873H528.155H525.437H522.718H520H517.282H514.564H511.845H509.127H506.409H503.691H500.973H498.254H495.536H492.818H490.1H487.382H484.663H481.945H479.227H476.509H473.79H471.072H468.354H465.636H462.918H460.199H457.481H454.763H452.045H449.326H446.608H443.89H441.172H438.454H435.735H433.017H430.299H427.581H424.862H422.144H419.426H416.708H413.99H411.271H408.553H405.835H403.117H400.398H397.68H394.962H392.244H389.526H386.807H384.089H381.371H378.653H375.935H373.216H370.498H367.78H365.062H362.343H359.625H356.907H354.189H351.471H348.752H346.034H343.316H340.598H337.879H335.161H332.443H329.725H327.007H324.288H321.57H318.852H316.134H313.415H310.697H307.979H305.261H302.543H299.824H297.106H294.388H291.67H288.952H286.233H283.515H280.797H278.079H275.36H272.642H269.924H267.206H264.488H261.769H259.051H256.333H253.615H250.896H248.178H245.46H242.742H240.024H237.305H234.587H231.869H229.151H226.432H223.714H220.996H218.278H215.56H212.841H210.123H207.405H204.687H201.969H199.25H196.532H193.814H191.096H188.377H185.659H182.941H180.223H177.505H174.786H172.068H169.35H166.632H163.913H161.195H158.477H155.759H153.041H150.322H147.604H144.886H142.168H139.449H136.731H134.013H131.295H128.577H125.858H123.14H120.422H117.704H114.986H112.267H109.549H106.831H104.113H101.394H98.6762H95.958H93.2398H90.5215H87.8033H85.0851H82.3669H79.6487H76.9304H74.2122H71.494H68.7758H66.0576H63.3393H60.6211H57.9029H55.1847H52.4665H49.7483H47.03H44.3118H41.5936H38.8754H36.1572H33.4389H30.7207H28.0025H25.2843H22.5661H19.8478H17.1296H14.4114H11.6932H8.97497H6.25675H3.53853H0.820312V277.878Z" fill="url(#paint0_linear_1_583)"/>
<path d="M0.820312 277.878L3.53853 281.458L6.25675 254.163L8.97497 245.343L11.6932 255.451L14.4114 267.068L17.1296 256.393L19.8478 239.06L22.5661 256.351L25.2843 286.017L28.0025 267.614L30.7207 254.856L33.4389 242.87L36.1572 242.459L38.8754 248.389L41.5936 219.371L44.3118 204.5L47.03 204.272L49.7483 210.819L52.4665 229.158L55.1847 223.324L57.9029 241.262L60.6211 233.525L63.3393 234.767L66.0576 242.706L68.7758 249.308L71.494 237.168L74.2122 221.08L76.9304 227.609L79.6487 228.58L82.3669 230.567L85.0851 242.706L87.8033 260.273L90.5215 262.653L93.2398 247.66L95.958 250.135L98.6762 234.781L101.394 217.788L104.113 205.128L106.831 196.334L109.549 199.734L112.267 203.741L114.986 203.625L117.704 188.362L120.422 199.57L123.14 207.223L125.858 198.487L128.577 193.476L131.295 187.477L134.013 197.116L136.731 208.318L139.449 222.115L142.168 215.4L144.886 217.107L147.604 222.408L150.322 221.097L153.041 235.371L155.759 225.156L158.477 225.096L161.195 230.401L163.913 238.032L166.632 242.316L169.35 231.794L172.068 236.142L174.786 249.969L177.505 259.894L180.223 243.61L182.941 230.063L185.659 212.726L188.377 200.004L191.096 202.239L193.814 211.844L196.532 215.147L199.25 204.208L201.969 202.681L204.687 210.784L207.405 209.526L210.123 201.103L212.841 197.534L215.56 195.737L218.278 194.005L220.996 177.267L223.714 213.388L226.432 231.429L229.151 219.458L231.869 198.446L234.587 203.961L237.305 203.426L240.024 214.319L242.742 218.091L245.46 229.061L248.178 222.536L250.896 207.637L253.615 212.985L256.333 224.931L259.051 242.762L261.769 220.158L264.488 216.749L267.206 225.027L269.924 231.862L272.642 243.049L275.36 241.03L278.079 237.189L280.797 244.373L283.515 240.569L286.233 247.651L288.952 243.709L291.67 227.419L294.388 200.387L297.106 239.156L299.824 275.5L307.979 84.1311L313.415 66.5748L316.134 46.7665L318.852 21.9198L321.57 20.463L324.288 2.32079L327.007 1.24121L329.725 39.7387L332.443 72.9932L335.161 61.9375L337.879 84.7144L340.598 88.0643L343.316 121.704L346.034 131.94L348.752 188.451L351.471 189.037L354.189 218.522L356.907 215.291L359.625 227.27L362.343 208.734L365.062 196.468L367.78 183.249L370.498 177.685L373.216 183.452L375.935 190.602L378.653 210.853L381.371 232.099L384.089 204.177L386.807 206.889L389.526 222L392.244 226.692L394.962 214.882L397.68 224.683L400.398 221.78L403.117 212.53L405.835 206.466L408.553 222.601L411.271 222.57L413.99 227.124L416.708 240.986L419.426 219.583L422.144 200.894L424.862 179.192L427.581 188.525L430.299 186.464L433.017 185.273L435.735 188.82L438.454 171.255L441.172 159.802L443.89 153.154L446.608 157.843L449.326 150.211L452.045 143.196L454.763 124.329L457.481 130.469L460.199 124.4L462.918 133.24L465.636 135.517L468.354 122.943L471.072 131.206L473.79 131.047L476.509 129.543L479.227 111.782L481.945 105.691L484.663 90.4628L487.382 109.335L490.1 112.602L492.818 124.422L495.536 118.68L498.254 155.488L500.973 159.18L503.691 154.906L506.409 162.23L509.127 181.338L511.845 161.127L514.564 168.073L517.282 167.137L520 163.727L522.718 150.71L525.437 142.548L528.155 133.787L530.873 137.102L533.591 138.197L536.309 149.054L539.028 150.818L541.746 112.577L544.464 123.441L547.182 149.67L549.901 137.252L552.619 126.037L555.337 107.101L558.055 140.392L560.773 113.006L563.492 124.27L566.21 129.788L568.928 115.27L571.646 101.564L574.365 118.758L577.083 109.382L579.801 120.095L582.519 99.7317L585.237 99.437L587.956 115.876L590.674 120.33L593.392 120.856L596.11 109.98L598.828 111.727L601.547 112.744L604.265 93.4896L606.983 144.235L609.701 148.008L612.42 146.517L615.138 109.94L617.856 118.416L620.574 137.586L623.292 154.796L626.011 167.452L628.729 191.114L631.447 180.344L634.165 175.65L636.884 164.734L639.602 162.035L642.32 157.156L645.038 179.221L647.756 176.939L650.475 178.817L653.193 171.801L655.911 173.838L658.629 175.024L661.347 163.273L664.066 152.082L666.784 157.299L669.502 154.826L672.22 125.091L674.939 154.786L677.657 176.083L680.375 155.193L683.093 171.807L685.811 164.77L688.53 163.273L691.248 178.889L693.966 179.677L696.684 161.509L699.403 179.297L702.121 204.896L704.839 206.243L707.557 204.321L710.275 199.63L712.994 211.675L715.712 208.207L718.43 192.522L721.148 194.205L723.867 186.809L726.585 190.88L729.303 188.26L732.021 199.93L734.739 206.726L737.458 216.942L740.176 206.223L742.894 230.37L745.612 207.761L748.331 200.436L751.049 222.669L753.767 229.341L756.485 218.642L759.203 220.173L761.922 241.041L764.64 232.735L767.358 228.209L770.076 223.49L772.794 229.381L775.513 218.21L778.231 211.127L780.949 202.979" stroke="#0052FE" stroke-width="1.5" stroke-linecap="round" stroke-linejoin="round"/>
<defs>
<linearGradient id="paint0_linear_1_583" x1="0.820312" y1="1.24121" x2="0.820312" y2="320.11" gradientUnits="userSpaceOnUse">
<stop stop-color="#1053D2" stop-opacity="0.2"/>
<stop offset="0.95" stop-color="white" stop-opacity="0.05"/>
</linearGradient>
</defs>
</svg>
